<?xml version="1.0" encoding="UTF-8"?>
<svg version="1.1" xmlns="http://www.w3.org/2000/svg" width="176" height="162">
<path d="M0 0 C0.88157272 -0.00860046 1.76314545 -0.01720093 2.6714325 -0.02606201 C3.6361145 -0.03032196 4.60079651 -0.03458191 5.5947113 -0.03897095 C6.61296494 -0.04714844 7.63121857 -0.05532593 8.68032837 -0.06375122 C12.05730096 -0.08860454 15.43423141 -0.10512387 18.81126404 -0.11953735 C19.96548292 -0.12486103 21.11970181 -0.13018471 22.30889702 -0.13566971 C28.42173982 -0.16240487 34.5345622 -0.18177602 40.64744568 -0.19619751 C45.70003928 -0.20952225 50.75222766 -0.23734807 55.80467224 -0.27822876 C61.90954276 -0.32762475 68.01404638 -0.35232778 74.1191082 -0.35942459 C76.44144124 -0.36612573 78.76376647 -0.38131796 81.08598518 -0.4053154 C84.34583386 -0.43707187 87.60427865 -0.43698704 90.86424255 -0.42959595 C91.81475494 -0.44600128 92.76526733 -0.46240662 93.74458313 -0.47930908 C101.80903153 -0.4048798 108.17217825 2.18573363 114.33860779 7.3999939 C124.10353931 19.00619429 122.83875412 32.2545001 122.81517029 46.8140564 C122.81584541 48.29570023 122.81681716 49.77734396 122.81806946 51.25898743 C122.81953251 54.33912223 122.81743433 57.41922776 122.81272888 60.49935913 C122.80698698 64.45040449 122.81034729 68.40138258 122.81630135 72.35242558 C122.8199063 75.40038058 122.81876946 78.44831947 122.81617355 81.49627495 C122.81550643 82.95436041 122.81632521 84.41244733 122.81865311 85.87053108 C122.82118337 87.89736021 122.81664526 89.92419449 122.81175232 91.95101929 C122.81095673 93.10364761 122.81016113 94.25627594 122.80934143 95.4438324 C122.68235779 98.15390015 122.68235779 98.15390015 121.68235779 100.15390015 C122.34235779 100.15390015 123.00235779 100.15390015 123.68235779 100.15390015 C123.94488404 104.48558332 122.97479314 108.03426245 121.68235779 112.15390015 C122.34235779 112.15390015 123.00235779 112.15390015 123.68235779 112.15390015 C123.72507879 113.8200192 123.72299611 115.487729 123.68235779 117.15390015 C123.35235779 117.48390015 123.02235779 117.81390015 122.68235779 118.15390015 C122.43564108 119.98495431 122.21033047 121.81890696 121.99485779 123.65390015 C120.79262502 131.19028466 117.69072431 136.06196789 112.43235779 141.46640015 C105.10153752 145.96485804 98.07772083 147.77694933 89.54563904 147.9156189 C88.538423 147.94443649 87.53120697 147.97325409 86.49346924 148.00294495 C71.38453723 148.35837009 56.26125983 148.19535325 41.15086365 148.02182007 C36.71796129 147.97188171 32.28524408 147.9460786 27.85212231 147.92538929 C24.38845764 147.90494724 20.92513673 147.86706525 17.46167946 147.82452965 C15.82687638 147.80736977 14.19199246 147.79653646 12.55710411 147.79258156 C1.74046711 147.75864016 -8.79729031 147.52907581 -17.25514221 139.90390015 C-24.55405687 131.72981586 -25.46531656 123.21915499 -25.47877502 112.63534546 C-25.48373993 111.69468231 -25.48870483 110.75401917 -25.49382019 109.78485107 C-25.5083822 106.68390155 -25.51523394 103.58300319 -25.52076721 100.48202515 C-25.52652365 98.31737264 -25.53228132 96.15272013 -25.53804016 93.98806763 C-25.54853326 89.4521969 -25.55438696 84.9163438 -25.55787659 80.38046265 C-25.5633571 74.58593234 -25.58738303 68.79163749 -25.61584854 62.99718094 C-25.63452896 58.52573987 -25.6396834 54.0543549 -25.64121246 49.58287811 C-25.64422741 47.44757551 -25.65221653 45.31227363 -25.66539764 43.17700958 C-25.68257094 40.18117157 -25.68055038 37.18590105 -25.67408752 34.19003296 C-25.68330231 33.31903961 -25.69251709 32.44804626 -25.70201111 31.55065918 C-25.6406435 22.40843855 -23.67027454 14.60323745 -17.29029846 7.91171265 C-12.19713959 3.37325425 -6.94742462 0.05054416 0 0 Z M7.68235779 34.15390015 C7.68235779 38.44390015 7.68235779 42.73390015 7.68235779 47.15390015 C9.99235779 47.15390015 12.30235779 47.15390015 14.68235779 47.15390015 C14.68235779 64.31390015 14.68235779 81.47390015 14.68235779 99.15390015 C12.37235779 99.15390015 10.06235779 99.15390015 7.68235779 99.15390015 C7.68235779 103.77390015 7.68235779 108.39390015 7.68235779 113.15390015 C12.07898812 113.17681252 16.47541266 113.19673848 20.87205505 113.20883179 C22.36880697 113.21387136 23.86555394 113.22070302 25.36228943 113.2293396 C27.50935586 113.24142173 29.65635741 113.24713206 31.80345154 113.2515564 C33.09694519 113.25679321 34.39043884 113.26203003 35.72312927 113.26742554 C38.56888183 113.49386947 38.56888183 113.49386947 39.68235779 112.15390015 C39.78109595 110.15590443 39.81207578 108.15432856 39.80735779 106.15390015 C39.80993591 105.06077515 39.81251404 103.96765015 39.81517029 102.84140015 C39.98783534 100.2355966 39.98783534 100.2355966 38.68235779 99.15390015 C36.37235779 99.15390015 34.06235779 99.15390015 31.68235779 99.15390015 C31.68235779 92.55390015 31.68235779 85.95390015 31.68235779 79.15390015 C42.90235779 79.15390015 54.12235779 79.15390015 65.68235779 79.15390015 C65.68235779 85.75390015 65.68235779 92.35390015 65.68235779 99.15390015 C63.04235779 99.15390015 60.40235779 99.15390015 57.68235779 99.15390015 C57.68235779 103.77390015 57.68235779 108.39390015 57.68235779 113.15390015 C62.07856003 113.23481184 66.47327376 113.29436588 70.86985779 113.34140015 C72.11573669 113.36653687 73.3616156 113.39167358 74.64524841 113.41757202 C75.84729919 113.42723999 77.04934998 113.43690796 78.28782654 113.4468689 C79.3927948 113.46257935 80.49776306 113.47828979 81.63621521 113.49447632 C85.08102857 113.10932647 86.95333891 112.26757654 89.68235779 110.15390015 C90.28629471 107.420124 90.28629471 107.420124 89.99485779 104.46640015 C89.92718201 102.97559937 89.92718201 102.97559937 89.85813904 101.4546814 C89.80013123 100.69542358 89.74212341 99.93616577 89.68235779 99.15390015 C87.04235779 99.15390015 84.40235779 99.15390015 81.68235779 99.15390015 C82.01235779 82.32390015 82.34235779 65.49390015 82.68235779 48.15390015 C86.14735779 47.65890015 86.14735779 47.65890015 89.68235779 47.15390015 C89.68235779 42.86390015 89.68235779 38.57390015 89.68235779 34.15390015 C79.12235779 34.15390015 68.56235779 34.15390015 57.68235779 34.15390015 C57.68235779 38.44390015 57.68235779 42.73390015 57.68235779 47.15390015 C60.32235779 47.15390015 62.96235779 47.15390015 65.68235779 47.15390015 C65.68235779 53.75390015 65.68235779 60.35390015 65.68235779 67.15390015 C54.46235779 67.15390015 43.24235779 67.15390015 31.68235779 67.15390015 C31.68235779 60.55390015 31.68235779 53.95390015 31.68235779 47.15390015 C34.32235779 47.15390015 36.96235779 47.15390015 39.68235779 47.15390015 C39.68235779 42.86390015 39.68235779 38.57390015 39.68235779 34.15390015 C29.12235779 34.15390015 18.56235779 34.15390015 7.68235779 34.15390015 Z " fill="#F7F7F7" transform="translate(41.31764221191406,5.846099853515625)"/>
<path d="M0 0 C0.33 0 0.66 0 1 0 C1 4.95 1 9.9 1 15 C-9.89 15 -20.78 15 -32 15 C-32 14.67 -32 14.34 -32 14 C-31.20827393 13.98018066 -30.41654785 13.96036133 -29.60083008 13.93994141 C-26.0043924 13.8445284 -22.40852249 13.73491409 -18.8125 13.625 C-17.56662109 13.5940625 -16.32074219 13.563125 -15.03710938 13.53125 C-13.83505859 13.49257812 -12.63300781 13.45390625 -11.39453125 13.4140625 C-10.28956299 13.3826416 -9.18459473 13.3512207 -8.04614258 13.31884766 C-4.5813033 13.09614553 -4.5813033 13.09614553 0 11 C0 7.37 0 3.74 0 0 Z " fill="#C4C4C4" transform="translate(131,105)"/>
<path d="M0 0 C0.33 0 0.66 0 1 0 C1 4.62 1 9.24 1 14 C-0.98 14 -2.96 14 -5 14 C-3.625 12.5 -3.625 12.5 -2 11 C-1.34 11 -0.68 11 0 11 C0 7.37 0 3.74 0 0 Z " fill="#6D6D6D" transform="translate(131,105)"/>
</svg>
