<?xml version="1.0" encoding="UTF-8"?>
<svg version="1.1" xmlns="http://www.w3.org/2000/svg" width="180" height="161">
<path d="M0 0 C1.03063568 -0.0071553 2.06127136 -0.01431061 3.12313843 -0.02168274 C6.4997918 -0.03846895 9.87509866 -0.01922652 13.25170898 0.00219727 C15.6148235 0.00136771 17.97793795 -0.00109494 20.34104919 -0.00511169 C25.28109208 -0.00796274 30.22067983 0.00666559 35.16064453 0.03417969 C41.47770052 0.06827917 47.79394415 0.06223095 54.11103916 0.04351711 C58.98653377 0.03292582 63.86184085 0.04190413 68.73731804 0.05690193 C71.06601339 0.06206725 73.39472845 0.06162209 75.7234211 0.05535698 C78.98270612 0.04987845 82.24084567 0.07036504 85.5 0.09765625 C86.45246109 0.09113037 87.40492218 0.08460449 88.38624573 0.07788086 C96.24117916 0.18915439 101.90595534 2.48691483 108.43530273 6.75610352 C116.27411497 14.95122539 117.33620769 24.22761261 117.33056641 35.07373047 C117.33392502 36.00624634 117.33728363 36.93876221 117.34074402 37.89953613 C117.35021873 40.97283268 117.35219541 44.04607453 117.35327148 47.11938477 C117.35648658 49.26401288 117.35985084 51.40864078 117.36335754 53.55326843 C117.36934018 58.04625965 117.37119834 62.53923165 117.37060547 67.03222656 C117.37050392 72.77523727 117.38415262 78.51812415 117.40137768 84.26110554 C117.41252387 88.69047099 117.41452387 93.11980676 117.41399574 97.5491848 C117.41517204 99.66576756 117.41957407 101.78235118 117.42732811 103.89892006 C117.43718047 106.86613131 117.43422923 109.83307698 117.42822266 112.80029297 C117.43384216 113.66553085 117.43946167 114.53076874 117.44525146 115.42222595 C117.38544589 127.11209742 114.62996729 134.18643896 106.37280273 142.44360352 C99.34842415 147.26425548 92.21548107 148.07622586 83.8671875 148.03515625 C82.87731842 148.0420195 81.88744934 148.04888275 80.86758423 148.05595398 C77.62047671 148.07414021 74.37385612 148.07039617 71.12670898 148.06469727 C68.85424138 148.06926287 66.58177515 148.07456956 64.30931091 148.08058167 C59.5559222 148.08949666 54.80270165 148.08710778 50.04931641 148.07714844 C43.9756264 148.0656591 37.90251782 148.08587854 31.82890415 148.11506557 C27.13869069 148.13346247 22.44861568 148.13312815 17.75837517 148.12742805 C15.51980715 148.12727528 13.28122948 148.13328325 11.042696 148.14571953 C7.90570314 148.16069398 4.76977342 148.14990466 1.6328125 148.1328125 C0.26326164 148.14731445 0.26326164 148.14731445 -1.13395691 148.16210938 C-8.79470421 148.07525555 -15.12908239 145.92437499 -21.62719727 141.88110352 C-29.335599 133.95246173 -31.1159841 125.44680756 -31.10522461 114.73950195 C-31.11194183 113.77103836 -31.11865906 112.80257477 -31.12557983 111.80476379 C-31.14451099 108.61661588 -31.14848173 105.42867908 -31.15063477 102.24047852 C-31.15706659 100.01238927 -31.16379524 97.78430087 -31.17080688 95.55621338 C-31.18276783 90.88926232 -31.18648897 86.22238522 -31.18530273 81.55541992 C-31.18509974 75.59613555 -31.21238781 69.63732907 -31.24684715 63.67815781 C-31.26916403 59.0762721 -31.27313878 54.47450048 -31.27208328 49.87256622 C-31.27443256 47.67668259 -31.28321786 45.48079549 -31.29874802 43.28496552 C-31.47270043 16.14676602 -31.47270043 16.14676602 -22.69876194 7.24312878 C-15.89063735 1.41802682 -8.72487748 -0.10733276 0 0 Z M2.18530273 34.63110352 C2.18530273 38.92110352 2.18530273 43.21110352 2.18530273 47.63110352 C4.49530273 47.63110352 6.80530273 47.63110352 9.18530273 47.63110352 C9.18530273 65.12110352 9.18530273 82.61110352 9.18530273 100.63110352 C6.87530273 100.63110352 4.56530273 100.63110352 2.18530273 100.63110352 C2.18530273 104.92110352 2.18530273 109.21110352 2.18530273 113.63110352 C12.41530273 113.63110352 22.64530273 113.63110352 33.18530273 113.63110352 C33.18530273 109.34110352 33.18530273 105.05110352 33.18530273 100.63110352 C30.87530273 100.63110352 28.56530273 100.63110352 26.18530273 100.63110352 C26.18530273 93.70110352 26.18530273 86.77110352 26.18530273 79.63110352 C37.40530273 79.63110352 48.62530273 79.63110352 60.18530273 79.63110352 C60.18530273 86.56110352 60.18530273 93.49110352 60.18530273 100.63110352 C57.54530273 100.63110352 54.90530273 100.63110352 52.18530273 100.63110352 C52.18530273 104.92110352 52.18530273 109.21110352 52.18530273 113.63110352 C56.58150498 113.71201521 60.97621871 113.77156925 65.37280273 113.81860352 C66.61868164 113.84374023 67.86456055 113.86887695 69.14819336 113.89477539 C70.35024414 113.90444336 71.55229492 113.91411133 72.79077148 113.92407227 C73.89573975 113.93978271 75.00070801 113.95549316 76.13916016 113.97167969 C79.57947511 113.58703279 81.4525399 112.73014591 84.18530273 110.63110352 C84.78821113 108.12748562 84.78821113 108.12748562 84.49780273 105.44360352 C84.43012695 104.09202148 84.43012695 104.09202148 84.36108398 102.71313477 C84.30307617 102.02606445 84.24506836 101.33899414 84.18530273 100.63110352 C81.87530273 100.30110352 79.56530273 99.97110352 77.18530273 99.63110352 C76.85530273 82.47110352 76.52530273 65.31110352 76.18530273 47.63110352 C78.82530273 47.63110352 81.46530273 47.63110352 84.18530273 47.63110352 C84.18530273 43.34110352 84.18530273 39.05110352 84.18530273 34.63110352 C73.62530273 34.63110352 63.06530273 34.63110352 52.18530273 34.63110352 C52.18530273 38.92110352 52.18530273 43.21110352 52.18530273 47.63110352 C54.82530273 47.63110352 57.46530273 47.63110352 60.18530273 47.63110352 C60.18530273 54.56110352 60.18530273 61.49110352 60.18530273 68.63110352 C48.96530273 68.63110352 37.74530273 68.63110352 26.18530273 68.63110352 C26.18530273 61.70110352 26.18530273 54.77110352 26.18530273 47.63110352 C28.49530273 47.63110352 30.80530273 47.63110352 33.18530273 47.63110352 C33.18530273 43.34110352 33.18530273 39.05110352 33.18530273 34.63110352 C22.95530273 34.63110352 12.72530273 34.63110352 2.18530273 34.63110352 Z " fill="#070707" transform="translate(49.814697265625,8.368896484375)"/>
<path d="M0 0 C2.64 0 5.28 0 8 0 C8.02685412 2.31243792 8.04632841 4.6249627 8.0625 6.9375 C8.07410156 8.22527344 8.08570313 9.51304688 8.09765625 10.83984375 C8 14 8 14 7 15 C4.6243148 15.0883967 2.27791326 15.11530305 -0.09765625 15.09765625 C-1.16094398 15.09553383 -1.16094398 15.09553383 -2.24571228 15.09336853 C-4.51801712 15.08775443 -6.79022475 15.07519963 -9.0625 15.0625 C-10.59960796 15.05748681 -12.13671745 15.05292359 -13.67382812 15.04882812 C-17.44925642 15.03778042 -21.22461171 15.02050641 -25 15 C-25 14.67 -25 14.34 -25 14 C-23.80455566 13.970271 -23.80455566 13.970271 -22.58496094 13.93994141 C-18.97297528 13.84466752 -15.36156601 13.73499693 -11.75 13.625 C-9.86861328 13.57859375 -9.86861328 13.57859375 -7.94921875 13.53125 C-6.74394531 13.49257812 -5.53867188 13.45390625 -4.296875 13.4140625 C-3.18666992 13.3826416 -2.07646484 13.3512207 -0.93261719 13.31884766 C1.91490638 13.00925177 3.6458215 12.60766346 6 11 C6.70176588 8.58320293 6.70176588 8.58320293 6.75 5.875 C6.80671875 4.96492188 6.8634375 4.05484375 6.921875 3.1171875 C6.94765625 2.41851562 6.9734375 1.71984375 7 1 C4.69 1 2.38 1 0 1 C0 0.67 0 0.34 0 0 Z " fill="#1F1F1F" transform="translate(127,108)"/>
<path d="M0 0 C2.64 0 5.28 0 8 0 C8 4.62 8 9.24 8 14 C6.02 14 4.04 14 2 14 C2.96679688 13.41798828 2.96679688 13.41798828 3.953125 12.82421875 C6.20878584 11.16053515 6.20878584 11.16053515 6.609375 8.51953125 C6.67898437 7.17955078 6.67898437 7.17955078 6.75 5.8125 C6.80671875 4.91144531 6.8634375 4.01039062 6.921875 3.08203125 C6.94765625 2.39496094 6.9734375 1.70789063 7 1 C4.69 1 2.38 1 0 1 C0 0.67 0 0.34 0 0 Z " fill="#979797" transform="translate(127,108)"/>
</svg>
